<svg version="1.1" xmlns="http://www.w3.org/2000/svg" xmlns:xlink="http://www.w3.org/1999/xlink" width="800px" height="800px" viewBox="0,0,256,256"><g fill="none" fill-rule="nonzero" stroke="none" stroke-width="1" stroke-linecap="butt" stroke-linejoin="miter" stroke-miterlimit="10" stroke-dasharray="" stroke-dashoffset="0" font-family="none" font-weight="none" font-size="none" text-anchor="none" style="mix-blend-mode: normal"><g transform="translate(0.00011,-2) scale(4,4)"><path d="M44,20l8,12l-4,15v5h-20v-32z" fill="#d9dae2"></path><rect x="11" y="3" width="30" height="44" rx="3.019" ry="3.019" fill="#60a5fa"></rect><path d="M38,3v0.017v14c0.00053,7.15615 -2.84187,14.01939 -7.90184,19.07974c-5.05998,5.06035 -11.923,7.90326 -19.07916,7.90326v0h-0.019c0.0099,1.65937 1.3576,2.99948 3.017,3h23.964c1.66735,0 3.019,-1.35165 3.019,-3.019v-37.962c0.00058,-1.66018 -1.33985,-3.0091 -3,-3.019z" fill="#0284c7"></path><rect x="27" y="51" width="22" height="10" fill="#cfcfd9"></rect><rect x="16" y="3" width="6" height="44" fill="#444444"></rect><path d="M16,43.533v3.467h6v-5.337c-1.91952,0.85708 -3.93343,1.48475 -6,1.87z" fill="#000000"></path><rect x="30" y="8" width="6" height="8" rx="1.869" ry="1.869" fill="#cceaff"></rect><path d="M38,25v12l-6,6v8h12v-26z" fill="#e5e6eb"></path><path d="M33,53l-4,4v-4z" fill="#ffffff"></path><path d="M52.966,32.258c0.07424,-0.27766 0.02543,-0.57385 -0.134,-0.813l-8,-12c-0.18552,-0.27807 -0.49772,-0.44505 -0.832,-0.445h-3v2h2.465l7.452,11.179l-3.883,14.563c-0.02278,0.0841 -0.03421,0.17087 -0.034,0.258v3h-18v-3h-2v3c-0.55228,0 -1,0.44772 -1,1v10c0,0.55228 0.44772,1 1,1h22c0.55228,0 1,-0.44772 1,-1v-10c0,-0.55228 -0.44772,-1 -1,-1v-2.869zM48,60h-20v-8h20z" fill="#000000"></path><path d="M45,51h-2v-25h-4v11c-0.00006,0.26519 -0.10545,0.51951 -0.293,0.707l-5.707,5.707v7.586h-2v-8c0.00006,-0.26519 0.10545,-0.51951 0.293,-0.707l5.707,-5.707v-11.586c0,-0.55228 0.44772,-1 1,-1h6c0.55228,0 1,0.44772 1,1z" fill="#000000"></path></g></g></svg>