<svg version="1.1" xmlns="http://www.w3.org/2000/svg" xmlns:xlink="http://www.w3.org/1999/xlink" width="800px" height="800px" viewBox="0,0,256,256"><g fill="none" fill-rule="nonzero" stroke="none" stroke-width="1" stroke-linecap="butt" stroke-linejoin="miter" stroke-miterlimit="10" stroke-dasharray="" stroke-dashoffset="0" font-family="none" font-weight="none" font-size="none" text-anchor="none" style="mix-blend-mode: normal"><g transform="translate(0,-0.025) scale(0.5,0.5)"><g><path d="M357.1,207.1h-315.8c-8.6,0 -15.6,7 -15.6,15.6v192c0,8.6 7,15.6 15.6,15.6h315.8c8.6,0 15.6,-7 15.6,-15.6v-192c0,-8.7 -7,-15.6 -15.6,-15.6zM287.3,246.7c0,-3.9 3.1,-7 7,-7c3.9,0 7,3.1 7,7v21.6c0,3.9 -3.1,7 -7,7c-3.9,0 -7,-3.1 -7,-7zM131.7,381.9h-69.4v-44h69.4zM111.1,287.5c-4.8,0 -9.3,-1.5 -13,-4c-3.7,2.5 -8.2,4 -13,4c-12.6,0 -22.9,-10.3 -22.9,-22.9c0,-12.6 10.2,-22.9 22.9,-22.9c4.8,0 9.3,1.5 13,4c3.7,-2.6 8.2,-4 13,-4c12.6,0 22.9,10.3 22.9,22.9c0,12.6 -10.2,22.9 -22.9,22.9zM233.9,381.9h-69.4v-44h69.4zM259.6,275.3c-3.9,0 -7,-3.1 -7,-7v-21.6c0,-3.9 3.1,-7 7,-7c3.9,0 7,3.1 7,7v21.6c0,3.8 -3.1,7 -7,7zM336,381.9h-69.4v-44h69.4zM336,268.3c0,3.9 -3.1,7 -7,7c-3.9,0 -7,-3.1 -7,-7v-21.6c0,-3.9 3.1,-7 7,-7c3.9,0 7,3.1 7,7z" fill="#1e3a8a"></path><path d="M470.7,81.8h-315.8c-8.6,0 -15.6,7 -15.6,15.6v95.7h217.7c16.3,0 29.6,13.3 29.6,29.6v82.3h84.1c8.6,0 15.6,-7 15.6,-15.6v-192c0,-8.7 -6.9,-15.6 -15.6,-15.6zM423.7,145.6h-221.7c-3.9,0 -7,-3.1 -7,-7c0,-3.9 3.1,-7 7,-7h221.7c3.9,0 7,3.1 7,7c0,3.9 -3.1,7 -7,7z" fill="#3b82f6"></path></g></g></g></svg>