<svg version="1.1" xmlns="http://www.w3.org/2000/svg" xmlns:xlink="http://www.w3.org/1999/xlink" width="800px" height="800px" viewBox="0,0,256,256"><g fill="none" fill-rule="nonzero" stroke="none" stroke-width="1" stroke-linecap="butt" stroke-linejoin="miter" stroke-miterlimit="10" stroke-dasharray="" stroke-dashoffset="0" font-family="none" font-weight="none" font-size="none" text-anchor="none" style="mix-blend-mode: normal"><g transform="scale(0.5,0.5)"><g><path d="M197,472.5h118v-60.2h-118zM256,428.9c7.5,0 13.5,6 13.5,13.5c0,7.5 -6,13.5 -13.5,13.5c-7.5,0 -13.5,-6 -13.5,-13.5c0,-7.4 6,-13.5 13.5,-13.5z" fill="#1e3a8a"></path><path d="M142,446.7c0,14.2 11.5,25.8 25.8,25.8h15.2v-60.2h-41z" fill="#1e3a8a"></path><path d="M183,39.5h-15.2c-14.3,0 -25.8,11.5 -25.8,25.8v34.4h41z" fill="#1e3a8a"></path><path d="M315,39.5h-118v60.2h118zM294.5,76.6h-77c-3.9,0 -7,-3.1 -7,-7c0,-3.9 3.1,-7 7,-7h77c3.9,0 7,3.1 7,7c0,3.9 -3.1,7 -7,7z" fill="#1e3a8a"></path><path d="M344.2,39.5h-15.2v60.2h41v-34.4c0,-14.3 -11.5,-25.8 -25.8,-25.8z" fill="#1e3a8a"></path><path d="M329,472.5h15.2c14.2,0 25.8,-11.5 25.8,-25.8v-34.4h-41z" fill="#1e3a8a"></path><path d="M142,398.3h228v-284.6h-228zM317,319c0,15 -12.2,27.3 -27.3,27.3c-15.1,0 -27.2,-12.3 -27.2,-27.3v-18.5c0,-15 12.2,-27.3 27.3,-27.3c15.1,0 27.3,12.2 27.3,27.3v18.5zM306.5,176.8c3.3,2.1 4.2,6.4 2.1,9.7l-93.5,146.5c-1.3,2.1 -3.6,3.2 -5.9,3.2c-1.3,0 -2.6,-0.4 -3.8,-1.1c-3.3,-2.1 -4.2,-6.4 -2.1,-9.7l93.6,-146.4c2,-3.3 6.4,-4.2 9.6,-2.2zM195,193c0,-15 12.2,-27.3 27.3,-27.3c15.1,0 27.3,12.2 27.3,27.3v18.5c0,15 -12.2,27.3 -27.3,27.3c-15.1,0 -27.3,-12.3 -27.3,-27.3z" fill="#3b82f6"></path><path d="M222.3,224.8c7.3,0 13.3,-5.9 13.3,-13.3v-18.5c0,-7.3 -5.9,-13.3 -13.3,-13.3c-7.4,0 -13.3,6 -13.3,13.3v18.5c0,7.3 5.9,13.3 13.3,13.3z" fill="#1e3a8a"></path><path d="M289.8,287.3c-7.3,0 -13.3,5.9 -13.3,13.3v18.4c0,7.3 5.9,13.3 13.3,13.3c7.4,0 13.2,-6 13.2,-13.3v-18.5c0,-7.3 -5.9,-13.2 -13.2,-13.2z" fill="#1e3a8a"></path><path d="M415,193.6c1.8,0 3.6,-0.7 5,-2.1l39.7,-39.7c2.7,-2.7 2.7,-7.2 0,-9.9c-2.7,-2.7 -7.2,-2.7 -9.9,0l-39.8,39.7c-2.7,2.7 -2.7,7.2 0,9.9c1.4,1.4 3.2,2.1 5,2.1z" fill="#1e3a8a"></path><path d="M420,320.5c-2.7,-2.7 -7.2,-2.7 -9.9,0c-2.7,2.7 -2.7,7.2 0,9.9l39.7,39.7c1.4,1.4 3.2,2.1 5,2.1c1.8,0 3.6,-0.7 5,-2.1c2.7,-2.7 2.7,-7.2 0,-9.9z" fill="#1e3a8a"></path><path d="M461,249h-45.3c-3.9,0 -7,3.1 -7,7c0,3.9 3.1,7 7,7h45.3c3.9,0 7,-3.1 7,-7c0,-3.9 -3.1,-7 -7,-7z" fill="#1e3a8a"></path><path d="M62.3,142c-2.7,-2.7 -7.2,-2.7 -9.9,0c-2.7,2.7 -2.7,7.2 0,9.9l39.6,39.6c1.4,1.4 3.2,2.1 5,2.1c1.8,0 3.6,-0.7 5,-2.1c2.7,-2.7 2.7,-7.2 0,-9.9z" fill="#1e3a8a"></path><path d="M92,320.5l-39.7,39.7c-2.7,2.7 -2.7,7.2 0,9.9c1.4,1.4 3.2,2.1 5,2.1c1.8,0 3.6,-0.7 5,-2.1l39.7,-39.7c2.7,-2.7 2.7,-7.2 0,-9.9c-2.8,-2.8 -7.2,-2.8 -10,0z" fill="#1e3a8a"></path><path d="M96.3,263c3.9,0 7,-3.1 7,-7c0,-3.9 -3.1,-7 -7,-7h-45.3c-3.9,0 -7,3.1 -7,7c0,3.9 3.1,7 7,7z" fill="#1e3a8a"></path></g></g></g></svg>