<!DOCTYPE svg PUBLIC "-//W3C//DTD SVG 1.1//EN" "http://www.w3.org/Graphics/SVG/1.1/DTD/svg11.dtd">
<!-- Uploaded to: SVG Repo, www.svgrepo.com, Transformed by: SVG Repo Mixer Tools -->
<svg fill="#ffffff" width="800px" height="800px" viewBox="0 0 256 256" id="Flat" xmlns="http://www.w3.org/2000/svg" stroke="#ffffff">
<g id="SVGRepo_bgCarrier" stroke-width="0"/>
<g id="SVGRepo_tracerCarrier" stroke-linecap="round" stroke-linejoin="round"/>
<g id="SVGRepo_iconCarrier"> <g opacity="0.2"> <rect x="40" y="40" width="176" height="176" rx="8"/> </g> <path d="M140,84v92a8,8,0,0,1-16,0V98.94482l-11.56348,7.70557a8.00008,8.00008,0,0,1-8.873-13.31445l24-15.99317A8,8,0,0,1,140,84Zm84-36V208a16.01833,16.01833,0,0,1-16,16H48a16.01833,16.01833,0,0,1-16-16V48A16.01833,16.01833,0,0,1,48,32H208A16.01833,16.01833,0,0,1,224,48ZM208.00977,207.99951,208,48H48V208H208Z"/> </g>
</svg>