<svg version="1.1" xmlns="http://www.w3.org/2000/svg" xmlns:xlink="http://www.w3.org/1999/xlink" width="800px" height="800px" viewBox="0,0,256,256"><g fill="none" fill-rule="nonzero" stroke="none" stroke-width="1" stroke-linecap="butt" stroke-linejoin="miter" stroke-miterlimit="10" stroke-dasharray="" stroke-dashoffset="0" font-family="none" font-weight="none" font-size="none" text-anchor="none" style="mix-blend-mode: normal"><g transform="scale(0.5,0.5)"><circle cx="256.001" cy="300.138" r="211.862" fill="#60a5fa"></circle><g fill="#3b82f6"><circle cx="361.932" cy="414.897" r="35.31"></circle><path d="M353.105,450.207c-114.055,0 -207.017,-90.137 -211.639,-203.058c14.52,-0.122 26.26,-11.91 26.26,-26.46c0,-13.028 -9.426,-23.801 -21.818,-26.013c7.758,-36.932 25.001,-70.372 49.252,-97.49c-87.345,26.15 -151.02,107.096 -151.02,202.951c-0.001,117.009 94.853,211.863 211.861,211.863c62.776,0 119.15,-27.326 157.945,-70.705c-19.276,5.771 -39.688,8.912 -60.841,8.912z"></path></g><path d="M467.639,308.966c0.12,-2.931 0.224,-5.867 0.224,-8.828c0,-2.961 -0.104,-5.897 -0.224,-8.828h-79.353c-0.767,-34.919 -6.051,-67.846 -14.873,-97.103h66.038c-3.52,-6.083 -7.33,-11.975 -11.418,-17.655h-60.539c-12.275,-33.154 -29.352,-60.428 -49.483,-79.033c-16.916,-5.171 -34.761,-8.149 -53.181,-8.913v-0.107c-2.931,-0.12 -5.867,-0.224 -8.828,-0.224c-2.961,0 -5.897,0.104 -8.828,0.224v0.108c-18.42,0.762 -36.266,3.742 -53.181,8.913c-20.131,18.604 -37.209,45.879 -49.483,79.033h-60.54c-4.089,5.681 -7.898,11.572 -11.418,17.655h66.038c-8.822,29.258 -14.108,62.185 -14.873,97.103h-79.354c-0.12,2.931 -0.224,5.867 -0.224,8.828c0,2.961 0.104,5.897 0.224,8.828h79.354c0.767,34.919 6.052,67.846 14.873,97.103h-66.037c3.52,6.083 7.33,11.975 11.418,17.655h60.537c12.275,33.154 29.353,60.428 49.483,79.033c16.916,5.171 34.761,8.149 53.181,8.913v0.107c2.931,0.12 5.867,0.224 8.828,0.224c2.961,0 5.897,-0.104 8.828,-0.224v-0.109c18.42,-0.762 36.266,-3.742 53.181,-8.913c20.131,-18.604 37.208,-45.879 49.483,-79.033h60.538c4.088,-5.681 7.897,-11.572 11.418,-17.655h-66.038c8.822,-29.258 14.106,-62.185 14.873,-97.103h79.356zM349.123,176.552h-84.295v-87.582c34.662,4.903 65.058,38.318 84.295,87.582zM247.174,88.97v87.582h-84.295c19.237,-49.264 49.633,-82.679 84.295,-87.582zM156.682,194.207h90.492v97.103h-105.81c0.787,-35.264 6.272,-68.309 15.318,-97.103zM141.364,308.966h105.81v97.103h-90.492c-9.046,-28.795 -14.531,-61.839 -15.318,-97.103zM162.879,423.724h84.295v87.582c-34.662,-4.903 -65.058,-38.318 -84.295,-87.582zM264.829,511.306v-87.582h84.295c-19.238,49.264 -49.634,82.679 -84.295,87.582zM355.32,406.069h-90.492v-97.103h105.811c-0.787,35.264 -6.273,68.308 -15.319,97.103zM264.829,291.31v-97.103h90.492c9.046,28.794 14.531,61.839 15.319,97.103z" fill="#e4eaf8"></path><path d="M379.146,384.244c-5.033,-2.833 -10.75,-4.577 -16.925,-4.628c-2.01,9.118 -4.25,18.015 -6.901,26.454h-27.449c-0.735,2.837 -1.248,5.761 -1.248,8.828c0,3.066 0.513,5.991 1.248,8.828h21.254c-2.617,6.702 -5.442,13.111 -8.455,19.197c4.499,3.42 9.79,5.773 15.609,6.716c4.066,-8.171 7.838,-16.794 11.214,-25.913h28.502c0.735,-2.837 1.248,-5.761 1.248,-8.828c0,-3.067 -0.513,-5.991 -1.248,-8.828h-22.583c2.129,-7.063 4.029,-14.36 5.734,-21.826z" fill="#d5dced"></path><circle cx="361.932" cy="414.897" r="17.655" fill="#fff082"></circle><path d="M356.041,450.099c-0.984,0.013 -1.949,0.108 -2.936,0.108c-5.357,0 -10.651,-0.266 -15.908,-0.657c-18.836,34.904 -44.184,57.764 -72.367,61.758v-80.353c-5.553,-2.55 -10.937,-5.393 -16.22,-8.396c-8.681,-4.938 -17.01,-10.417 -24.872,-16.49h-67.055c-9.046,-28.794 -14.531,-61.839 -15.318,-97.103h11.981c-2.044,-5.78 -3.885,-11.657 -5.428,-17.655h-6.553c0.203,-9.087 0.742,-18.009 1.549,-26.767c-0.707,-5.729 -1.12,-11.544 -1.379,-17.4c1.223,-0.026 2.409,-0.186 3.59,-0.362c2.412,-17.038 5.9,-33.239 10.402,-48.335c-2.874,-1.849 -6.133,-3.135 -9.618,-3.772c7.758,-36.93 25.001,-70.37 49.251,-97.486c-0.433,0.129 -0.843,0.307 -1.274,0.438c-20.083,18.602 -37.124,45.832 -49.376,78.925h-60.42c-4.092,5.678 -7.881,11.575 -11.403,17.655h65.905c-8.822,29.258 -14.108,62.185 -14.873,97.103h-79.215c-0.121,2.943 -0.365,5.855 -0.365,8.828c0,2.961 0.104,5.897 0.224,8.828h79.354c0.767,34.919 6.052,67.845 14.873,97.103h-66.037c3.52,6.083 7.33,11.975 11.418,17.655h60.537c12.275,33.154 29.353,60.428 49.483,79.033v0c16.916,5.171 34.761,8.149 53.181,8.913v0.107c2.931,0.12 5.867,0.224 8.828,0.224c2.963,0 5.896,-0.119 8.828,-0.239v-0.096c18.457,-0.775 36.324,-3.801 53.271,-8.996c14.452,-13.383 27.291,-31.286 37.942,-52.571zM162.879,423.724h84.295v87.582c-34.662,-4.903 -65.058,-38.318 -84.295,-87.582z" fill="#d5dced"></path><path d="M141.242,0c43.878,0 79.448,35.57 79.448,79.448c0,52.966 -61.793,88.276 -79.448,141.241c-17.655,-52.966 -79.448,-88.276 -79.448,-141.241c0,-43.878 35.57,-79.448 79.448,-79.448z" fill="#ffdc64"></path><path d="M141.242,0c-43.878,0 -79.448,35.57 -79.448,79.448c0,52.966 61.793,88.276 79.448,141.241c-7.847,-52.966 -35.31,-88.276 -35.31,-141.241c0,-43.878 15.809,-79.448 35.31,-79.448z" fill="#ffc850"></path><path d="M150.07,77.484v-23.159c5.478,1.754 8.828,4.863 8.828,7.192c0,4.879 3.948,8.828 8.828,8.828c4.879,0 8.828,-3.948 8.828,-8.828c0,-12.414 -11.115,-22.464 -26.483,-25.316v-0.89c0,-4.879 -3.948,-8.828 -8.828,-8.828c-4.879,0 -8.828,3.948 -8.828,8.828v0.89c-15.368,2.852 -26.483,12.903 -26.483,25.316c0,17.374 14.579,24.587 26.483,28.723v23.159c-5.478,-1.754 -8.828,-4.863 -8.828,-7.192c0,-4.879 -3.948,-8.828 -8.828,-8.828c-4.879,0 -8.828,3.948 -8.828,8.828c0,12.414 11.115,22.464 26.483,25.316v0.89c0,4.879 3.948,8.828 8.828,8.828c4.879,0 8.828,-3.948 8.828,-8.828v-0.89c15.368,-2.852 26.483,-12.904 26.483,-25.316c0,-17.374 -14.579,-24.587 -26.483,-28.723zM123.587,61.517c0,-2.329 3.35,-5.438 8.828,-7.192v16.904c-7.175,-3.254 -8.828,-6.041 -8.828,-9.712zM150.07,113.399v-16.904c7.175,3.255 8.828,6.041 8.828,9.711c0,2.33 -3.35,5.439 -8.828,7.193z" fill="#ffffff"></path></g></g></svg>